<svg width="17" height="16" fill="none" xmlns="http://www.w3.org/2000/svg"><path fill-rule="evenodd" clip-rule="evenodd" d="M13.772 2.441A7.517 7.517 0 008.42.243C4.214.243.773 3.683.773 7.889c0 1.338.383 2.676 1.052 3.823L.773 15.536l4.015-1.052c1.147.574 2.39.956 3.632.956 4.206 0 7.646-3.44 7.646-7.646 0-2.008-.86-3.92-2.294-5.353zM8.42 14.198c-1.147 0-2.294-.287-3.25-.86l-.191-.096-2.39.669.67-2.294-.192-.287a6.149 6.149 0 01-.955-3.345c0-3.441 2.867-6.309 6.308-6.309 1.72 0 3.25.67 4.492 1.816 1.243 1.243 1.816 2.772 1.816 4.493 0 3.345-2.772 6.212-6.308 6.212zm3.44-4.78c-.19-.095-1.146-.573-1.337-.573-.191-.096-.287-.096-.383.096-.095.19-.478.573-.573.764-.096.096-.191.096-.382.096-.192-.096-.765-.287-1.53-.956-.573-.478-.956-1.147-1.051-1.338-.096-.191 0-.287.095-.383l.287-.286c.096-.096.096-.191.191-.287.096-.096 0-.191 0-.287 0-.095-.382-1.051-.573-1.433-.096-.287-.287-.287-.382-.287h-.383c-.095 0-.287 0-.478.191-.19.191-.669.669-.669 1.625s.67 1.816.765 2.007c.095.096 1.338 2.103 3.25 2.867 1.624.67 1.911.478 2.294.478.382 0 1.147-.477 1.242-.86.191-.478.191-.86.096-.86-.096-.478-.287-.478-.478-.574z" fill="#0047FF"/></svg>