<svg width="20" height="20" fill="none" xmlns="http://www.w3.org/2000/svg"><circle cx="10" cy="10" r="10" fill="#0047FF"/><path fill-rule="evenodd" clip-rule="evenodd" d="M6.06 5.984c-.15 1.04-.299 3.845 1.906 6.05 2.205 2.205 5.01 2.057 6.05 1.907v-2.126l-2.183-.364-.33.659a.492.492 0 01-.44.272v-.492.492h-.027a1.55 1.55 0 01-.212-.02 3.052 3.052 0 01-.532-.128 3.966 3.966 0 01-1.546-.98 3.966 3.966 0 01-.98-1.546 3.064 3.064 0 01-.145-.694 1.434 1.434 0 01-.003-.066v-.01h.492-.492c0-.165.082-.32.22-.41l1.143-.763-.712-1.78h-2.21zm2.578 3.192l.89-.592a.984.984 0 00.367-1.185l-.712-1.78A.984.984 0 008.269 5H6.034a.942.942 0 00-.942.796c-.167 1.103-.394 4.362 2.178 6.934s5.83 2.345 6.934 2.178a.942.942 0 00.796-.942v-2.151a.984.984 0 00-.822-.971l-2.184-.364a.984.984 0 00-1.042.53l-.17.342a2.243 2.243 0 01-.179-.052 2.983 2.983 0 01-1.16-.742A2.984 2.984 0 018.7 9.397a2.256 2.256 0 01-.062-.22z" fill="#fff"/></svg>