<svg width="16" height="16" fill="none" xmlns="http://www.w3.org/2000/svg"><path d="M15.143 1.425c-.48.425-1.009.666-1.63.931.547-.542.86-1.22.847-2.008-.455.518-1.052.876-1.741 1.258a3.338 3.338 0 00-2.463-.33c-1.94.52-2.922 2.762-1.965 4.485-2.518.576-5.055-.03-7.12-1.457-.46 1.608.472 3.238 2.012 3.815-.461.124-.972.063-1.483.002.37 1.385 1.733 2.405 3.216 2.404-.437.216-.873.432-1.36.463a3.097 3.097 0 003.431 1.357c-.885 1.127-2.423 2.034-4.042 2.27 1.607.46 3.325.593 4.987.148 5.632-1.509 7.51-7.059 6.162-11.348a4.416 4.416 0 001.149-1.99z" fill="#0047FF"/></svg>