<svg width="16" height="14" fill="none" xmlns="http://www.w3.org/2000/svg"><path d="M1.572 6.118C5.677 4.33 8.414 3.15 9.784 2.581 13.694.954 14.507.67 15.037.662c.116-.002.377.027.546.164a.594.594 0 01.2.381c.019.11.042.36.024.555-.212 2.226-1.13 7.63-1.596 10.124-.197 1.055-.586 1.409-.962 1.444-.818.075-1.439-.54-2.23-1.06-1.24-.813-1.94-1.318-3.144-2.111-1.39-.916-.489-1.42.304-2.243.207-.215 3.81-3.492 3.88-3.79.009-.037.017-.175-.066-.249-.082-.073-.203-.048-.291-.028-.124.028-2.104 1.337-5.94 3.926-.562.386-1.071.574-1.527.564-.503-.01-1.47-.284-2.189-.518-.882-.287-1.583-.438-1.522-.925.032-.253.381-.513 1.048-.778z" fill="#0047FF"/></svg>