<svg width="17" height="16" fill="none" xmlns="http://www.w3.org/2000/svg"><path d="M8.254 1.434h3.25c.765 0 1.147.19 1.434.286.382.192.669.287.956.574.287.287.478.573.573.956.096.286.191.669.287 1.433v6.5c0 .765-.191 1.147-.287 1.434-.19.382-.287.669-.573.955-.287.287-.574.478-.956.574-.287.095-.67.191-1.434.287h-6.5c-.764 0-1.146-.191-1.433-.287-.382-.191-.669-.287-.956-.574-.287-.286-.478-.573-.573-.955-.096-.287-.191-.67-.287-1.434v-6.5c0-.764.191-1.147.287-1.433.19-.383.286-.67.573-.956.287-.287.574-.478.956-.574.287-.095.67-.19 1.434-.286h3.25zm0-1.434h-3.25c-.86 0-1.433.191-1.91.382a4.173 4.173 0 00-1.435.956c-.477.478-.669.86-.955 1.434C.512 3.25.417 3.823.32 4.683v6.5c0 .86.191 1.434.383 1.912.19.477.478.955.955 1.433.478.478.86.67 1.434.956.478.191 1.052.287 1.912.382h6.5c.86 0 1.433-.19 1.91-.382a4.173 4.173 0 001.435-.956c.478-.478.669-.86.955-1.433.191-.478.287-1.052.383-1.912v-6.5c0-.86-.191-1.433-.383-1.911a4.174 4.174 0 00-.955-1.434C14.372.86 13.99.67 13.416.382 12.938.192 12.364.096 11.504 0h-3.25z" fill="#0047FF"/><path d="M8.254 3.823a4.08 4.08 0 00-4.11 4.11 4.08 4.08 0 004.11 4.11 4.08 4.08 0 004.11-4.11 4.08 4.08 0 00-4.11-4.11zm0 6.787a2.672 2.672 0 01-2.676-2.677 2.672 2.672 0 012.676-2.676 2.672 2.672 0 012.677 2.676c0 1.434-1.243 2.677-2.677 2.677zm4.206-5.927a.956.956 0 100-1.911.956.956 0 000 1.911z" fill="#0047FF"/></svg>