<svg width="100" height="100" fill="none" xmlns="http://www.w3.org/2000/svg"><path d="M50 87.845a2.5 2.5 0 01-1.115-.265L13.54 69.945a2.5 2.5 0 01-1.385-2.24V32.43a2.5 2.5 0 011.385-2.235l35.345-17.64a2.5 2.5 0 012.23 0l35.345 17.64a2.5 2.5 0 011.385 2.235v35.275a2.5 2.5 0 01-1.385 2.24L51.115 87.58a2.5 2.5 0 01-1.115.265zM17.155 66.16L50 82.55l32.845-16.39V34L50 17.585 17.155 34v32.16z" fill="#242424"/><path d="M50 52.5c-.387 0-.768-.088-1.115-.26l-35.34-17.57a2.51 2.51 0 112.225-4.5l34.23 17 34.23-17a2.51 2.51 0 012.225 4.5l-35.34 17.57c-.346.172-.728.26-1.115.26z" fill="#242424"/><path d="M67.67 43.715a2.5 2.5 0 01-1.11-.26l-35.345-17.57a2.51 2.51 0 012.225-4.5L68.785 39a2.5 2.5 0 01-1.115 4.74v-.025zM50 87.845a2.5 2.5 0 01-2.5-2.5V50a2.5 2.5 0 015 0v35.345a2.5 2.5 0 01-2.5 2.5z" fill="#242424"/></svg>