<svg width="100" height="100" viewBox="0 0 100 100" fill="none" xmlns="http://www.w3.org/2000/svg">
<path d="M50 87.8449C49.6128 87.8441 49.2311 87.7534 48.885 87.5799L13.54 69.9449C13.1236 69.7374 12.7733 69.4178 12.5286 69.0221C12.2839 68.6263 12.1546 68.1702 12.155 67.7049V32.4299C12.1555 31.9655 12.2853 31.5104 12.5299 31.1156C12.7746 30.7208 13.1243 30.402 13.54 30.1949L48.885 12.5549C49.2313 12.3823 49.613 12.2925 50 12.2925C50.387 12.2925 50.7687 12.3823 51.115 12.5549L86.46 30.1949C86.8757 30.402 87.2254 30.7208 87.4701 31.1156C87.7147 31.5104 87.8445 31.9655 87.845 32.4299V67.7049C87.8455 68.1702 87.7161 68.6263 87.4714 69.0221C87.2267 69.4178 86.8764 69.7374 86.46 69.9449L51.115 87.5799C50.7689 87.7534 50.3872 87.8441 50 87.8449ZM17.155 66.1599L50 82.5499L82.845 66.1599V33.9999L50 17.5849L17.155 33.9999V66.1599Z" fill="#242424"/>
<path d="M50 52.4999C49.6132 52.5007 49.2316 52.4117 48.885 52.2399L13.545 34.6699C12.9483 34.3749 12.4932 33.8549 12.2799 33.2243C12.0665 32.5937 12.1125 31.9042 12.4075 31.3074C12.7026 30.7107 13.2226 30.2556 13.8532 30.0423C14.4838 29.829 15.1733 29.8749 15.77 30.1699L50 47.1699L84.23 30.1699C84.5255 30.0238 84.8468 29.9374 85.1757 29.9155C85.5046 29.8936 85.8346 29.9367 86.1468 30.0423C86.4591 30.1479 86.7475 30.314 86.9955 30.5311C87.2435 30.7481 87.4464 31.012 87.5925 31.3074C87.7386 31.6029 87.8251 31.9243 87.847 32.2531C87.8689 32.582 87.8258 32.912 87.7202 33.2243C87.6145 33.5365 87.4484 33.8249 87.2314 34.0729C87.0143 34.321 86.7505 34.5238 86.455 34.6699L51.115 52.2399C50.7685 52.4117 50.3868 52.5007 50 52.4999Z" fill="#242424"/>
<path d="M67.67 43.715C67.2849 43.715 66.905 43.626 66.56 43.455L31.215 25.885C30.6183 25.59 30.1632 25.0699 29.9499 24.4393C29.7365 23.8088 29.7824 23.1192 30.0775 22.5225C30.3726 21.9258 30.8926 21.4707 31.5232 21.2574C32.1538 21.044 32.8433 21.09 33.44 21.385L68.785 39C69.2907 39.2506 69.6967 39.6649 69.937 40.1756C70.1772 40.6862 70.2377 41.2631 70.1085 41.8125C69.9792 42.3618 69.6679 42.8513 69.2252 43.2013C68.7825 43.5512 68.2344 43.7411 67.67 43.74V43.715Z" fill="#242424"/>
<path d="M50 87.845C49.337 87.845 48.7011 87.5816 48.2322 87.1128C47.7634 86.6439 47.5 86.008 47.5 85.345V50C47.5 49.337 47.7634 48.7011 48.2322 48.2322C48.7011 47.7634 49.337 47.5 50 47.5C50.663 47.5 51.2989 47.7634 51.7678 48.2322C52.2366 48.7011 52.5 49.337 52.5 50V85.345C52.5 86.008 52.2366 86.6439 51.7678 87.1128C51.2989 87.5816 50.663 87.845 50 87.845Z" fill="#242424"/>
</svg>
