<svg width="71" height="71" fill="none" xmlns="http://www.w3.org/2000/svg"><g clip-path="url(#clip0_7_1456)"><path d="M64.344 8.875h-3.55A38.429 38.429 0 0136.876.488a2.219 2.219 0 00-2.752 0 38.429 38.429 0 01-23.918 8.387h-3.55a2.219 2.219 0 00-2.218 2.219V29.73A42.889 42.889 0 0034.857 71c.42.118.866.118 1.287 0a42.888 42.888 0 0030.419-41.269V11.094a2.219 2.219 0 00-2.22-2.219zm-2.219 20.856A38.451 38.451 0 0135.5 66.562a38.45 38.45 0 01-26.625-36.83v-16.42h1.331A42.822 42.822 0 0035.5 5.014a42.822 42.822 0 0025.294 8.299h1.331V29.73z" fill="#242424"/></g><defs><clipPath id="clip0_7_1456"><path fill="#fff" d="M0 0h71v71H0z"/></clipPath></defs></svg>