<svg width="31" height="38" fill="none" xmlns="http://www.w3.org/2000/svg"><path d="M21.046 6.076c1.176-1.42 2.009-3.356 2.009-5.316 0-.27-.025-.54-.074-.76-1.91.074-4.214 1.274-5.586 2.891-1.078 1.225-2.082 3.185-2.082 5.145 0 .294.049.588.073.686.123.025.319.05.515.05 1.715 0 3.87-1.152 5.145-2.696zm1.347 3.112c-2.866 0-5.194 1.74-6.688 1.74-1.593 0-3.675-1.642-6.174-1.642C4.802 9.286 0 13.206 0 20.58c0 4.606 1.764 9.457 3.969 12.593C5.856 35.82 7.497 38 9.874 38c2.352 0 3.38-1.568 6.296-1.568 2.965 0 3.626 1.519 6.223 1.519 2.573 0 4.288-2.352 5.905-4.68 1.813-2.67 2.572-5.267 2.597-5.39-.147-.049-5.072-2.058-5.072-7.693 0-4.875 3.871-7.056 4.092-7.227-2.548-3.675-6.444-3.773-7.522-3.773z" fill="#242424"/></svg>