<svg width="12" height="15" viewBox="0 0 12 15" fill="none" xmlns="http://www.w3.org/2000/svg">
<path d="M11.3334 5.3333H9.33341V4.13997C9.33341 2.39997 8.06008 0.846638 6.32675 0.679971C4.34008 0.493304 2.66675 2.0533 2.66675 3.99997V5.3333H0.666748V14.6666H11.3334V5.3333ZM6.00008 11.3333C5.26675 11.3333 4.66675 10.7333 4.66675 9.99997C4.66675 9.26664 5.26675 8.66664 6.00008 8.66664C6.73341 8.66664 7.33341 9.26664 7.33341 9.99997C7.33341 10.7333 6.73341 11.3333 6.00008 11.3333ZM4.00008 5.3333V3.99997C4.00008 2.8933 4.89341 1.99997 6.00008 1.99997C7.10675 1.99997 8.00008 2.8933 8.00008 3.99997V5.3333H4.00008Z" fill="#98989E"/>
</svg>
