<svg width="13" height="12" fill="none" xmlns="http://www.w3.org/2000/svg"><path d="M.204 1.333C.204.597.801 0 1.537 0h2.667c.736 0 1.333.597 1.333 1.333V4c0 .736-.597 1.333-1.333 1.333H1.537A1.333 1.333 0 01.204 4V1.333zm4 0H1.537V4h2.667V1.333zm2.667 0A1.333 1.333 0 018.204 0h2.667c.736 0 1.333.597 1.333 1.333V4c0 .736-.597 1.333-1.333 1.333H8.204A1.333 1.333 0 016.871 4V1.333zm4 0H8.204V4h2.667V1.333zM.204 8c0-.736.597-1.333 1.333-1.333h2.667c.736 0 1.333.597 1.333 1.333v2.667c0 .736-.597 1.333-1.333 1.333H1.537a1.333 1.333 0 01-1.333-1.333V8zm4 0H1.537v2.667h2.667V8zm2.667 0c0-.736.597-1.333 1.333-1.333h2.667c.736 0 1.333.597 1.333 1.333v2.667c0 .736-.597 1.333-1.333 1.333H8.204a1.333 1.333 0 01-1.333-1.333V8zm4 0H8.204v2.667h2.667V8z" fill="#fff"/></svg>