<svg width="12" height="12" fill="none" xmlns="http://www.w3.org/2000/svg"><path d="M2.5 3c0 .013.005.085.146.21.14.124.372.26.701.382C4.002 3.838 4.94 4 6 4s1.998-.162 2.653-.408c.329-.123.56-.258.701-.382.14-.125.146-.197.146-.21 0-.013-.005-.085-.146-.21-.14-.124-.372-.26-.701-.382C7.998 2.162 7.06 2 6 2s-1.998.162-2.653.408c-.329.123-.56.258-.701.382-.14.125-.146.197-.146.21zm-1 0c0-.401.219-.724.483-.958.264-.234.618-.423 1.013-.57C3.789 1.173 4.851 1 6 1s2.21.174 3.004.471c.395.148.749.337 1.013.571.264.234.483.557.483.958v6c0 .401-.219.724-.483.958-.264.235-.618.423-1.013.57C8.211 10.827 7.149 11 6 11s-2.21-.174-3.004-.471c-.395-.148-.749-.336-1.013-.571C1.719 9.724 1.5 9.401 1.5 9V3zm1 2c0 .013.005.085.146.21.14.124.372.26.701.382C4.002 5.838 4.94 6 6 6s1.998-.162 2.653-.408c.329-.123.56-.258.701-.382.14-.125.146-.197.146-.21v-.692a4.26 4.26 0 01-.496.22C8.211 4.827 7.149 5 6 5s-2.21-.174-3.004-.471a4.26 4.26 0 01-.496-.22V5zm0 1.308V7c0 .013.005.085.146.21.14.124.372.26.701.382C4.002 7.838 4.94 8 6 8s1.998-.162 2.653-.408c.329-.123.56-.258.701-.382.14-.125.146-.197.146-.21v-.692a4.26 4.26 0 01-.496.22C8.211 6.827 7.149 7 6 7s-2.21-.174-3.004-.471a4.26 4.26 0 01-.496-.22zm0 2V9c0 .013.005.085.146.21.14.124.372.26.701.382C4.002 9.838 4.94 10 6 10s1.998-.162 2.653-.408c.329-.123.56-.258.701-.382.14-.125.146-.197.146-.21v-.692a4.26 4.26 0 01-.496.22C8.211 8.827 7.149 9 6 9s-2.21-.174-3.004-.471a4.26 4.26 0 01-.496-.22z" fill="#3D5165"/></svg>