<svg width="15" height="15" fill="none" xmlns="http://www.w3.org/2000/svg"><g clip-path="url(#clip0_400_791)"><path d="M14.003 2.528a3.386 3.386 0 00-2.41-.999c-.91 0-1.767.355-2.41.999L3.807 7.9a2.048 2.048 0 000 2.893 2.048 2.048 0 002.893 0l3.539-3.539a.682.682 0 00-.965-.964L5.737 9.83a.683.683 0 01-.964-.964l5.373-5.374c.387-.386.9-.6 1.447-.6a2.048 2.048 0 011.446 3.492L7.183 12.24a3.413 3.413 0 01-4.82 0 3.386 3.386 0 01-1-2.41c0-.91.355-1.767 1-2.41l5.855-5.857A.682.682 0 107.254.6L1.398 6.455A4.741 4.741 0 000 9.83a4.74 4.74 0 001.398 3.375A4.757 4.757 0 004.773 14.6a4.759 4.759 0 003.374-1.395l5.856-5.856a3.413 3.413 0 000-4.821z" fill="#333"/></g><defs><clipPath id="clip0_400_791"><path fill="#fff" d="M0 0h15v15H0z"/></clipPath></defs></svg>