<svg width="177" height="55" fill="none" xmlns="http://www.w3.org/2000/svg"><path d="M61.497 11.062a4.178 4.178 0 00-4.796 3.249c-.386 2.243 1.006 4.332 3.25 4.796a4.179 4.179 0 004.795-3.25 4.023 4.023 0 00-3.249-4.795zm-36.743 1.083H0v5.337h9.128v23.052h6.498V17.482h9.128v-5.337z" fill="#0047FF"/><path d="M42.7 31.406c.078-1.083.155-1.625.155-1.702 0-2.243-.464-4.255-1.47-5.956-1.006-1.702-2.32-3.017-4.1-3.946a10.864 10.864 0 00-2.63-1.005c-1.005-.232-2.088-.387-3.171-.387-2.166 0-4.178.464-5.957 1.47-1.779.928-3.171 2.32-4.177 4.022-1.006 1.702-1.547 3.636-1.547 5.802 0 2.166.541 4.1 1.547 5.802 1.006 1.701 2.475 3.017 4.41 4.022 1.856.928 4.1 1.47 6.497 1.47 2.708 0 5.028-.542 6.807-1.702l-.31-1.392-.927-4.023c-.774.696-1.547 1.238-2.476 1.625-.85.31-1.856.541-3.017.541-1.624 0-3.016-.387-4.1-1.16-1.082-.774-1.779-1.857-2.088-3.172H42.7v-.31zm-16.554-3.713c.232-1.393.774-2.476 1.78-3.327 1.005-.773 2.165-1.237 3.635-1.237 1.392 0 2.63.387 3.558 1.237.464.387.774.774 1.083 1.238.387.619.62 1.238.697 2.011H26.145v.078zM53.375 0h-6.343v40.534h6.343V0zm4.177 43.861v11.14h6.343V22.046h-6.343V43.86zM90.97 31.406c.077-1.083.154-1.625.154-1.702 0-2.243-.464-4.255-1.47-5.956-1.005-1.702-2.32-3.017-4.1-3.946a10.861 10.861 0 00-2.63-1.005c-1.005-.232-2.088-.387-3.17-.387-2.167 0-4.178.464-5.957 1.47-1.78.928-3.172 2.32-4.177 4.022-1.006 1.702-1.547 3.636-1.547 5.802 0 2.166.541 4.1 1.547 5.802 1.005 1.701 2.475 3.017 4.409 4.022 1.856.928 4.1 1.47 6.498 1.47 2.707 0 5.028-.542 6.807-1.702l-1.238-5.492c-.773.696-1.547 1.237-2.475 1.624a8.737 8.737 0 01-3.017.542c-1.624 0-3.017-.387-4.1-1.16-1.083-.774-1.779-1.857-2.088-3.172H90.97v-.232zm-16.554-3.713c.232-1.393.773-2.476 1.779-3.327 1.006-.773 2.166-1.237 3.636-1.237 1.392 0 2.63.387 3.558 1.237.464.387.773.774 1.083 1.316.387.618.619 1.237.696 2.01H74.416zm34.191-3.48c-.619-.078-1.006-.078-1.161-.078-1.779 0-3.249.542-4.254 1.548-1.006 1.005-1.547 2.552-1.547 4.564v10.288h-6.343V18.72h6.033v2.862c.774-1.083 1.779-1.857 3.095-2.398.85-.387 1.856-.62 2.939-.697.387 1.934.851 3.79 1.238 5.725z" fill="#0047FF"/><path d="M142.334 16.786a4.178 4.178 0 00-4.796 3.249c-.387 2.243 1.005 4.331 3.248 4.796a4.18 4.18 0 004.797-3.25c.464-2.243-1.006-4.331-3.249-4.795zm-12.996 30.091a4.179 4.179 0 00-4.796 3.249c-.387 2.243 1.006 4.332 3.249 4.796a4.179 4.179 0 004.796-3.249c.464-2.243-1.006-4.332-3.249-4.796zm37.44 0a4.178 4.178 0 00-4.796 3.249c-.387 2.243 1.005 4.332 3.249 4.796a4.179 4.179 0 004.796-3.249c.464-2.243-1.006-4.332-3.249-4.796z" fill="#FF9700"/><path d="M173.276 4.796h-47.729c-.154-.85-.386-1.624-.541-2.475C124.697 1.006 123.304 0 121.989 0h-10.83c.465 2.011.929 4.177 1.393 6.266h6.884l6.962 31.793c-.541 1.315-1.16 2.63-1.701 3.945-.929 2.089.077 4.718 2.707 4.718h39.915c4.023 0 4.023-6.265 0-6.265h-35.196c.386-1.238.541-2.476.386-3.79 11.681-1.393 23.439-2.863 35.12-4.255l5.569-.696c1.702-.232 3.172-1.238 3.172-3.172V7.813c.077-1.547-1.393-3.017-3.094-3.017zm-3.172 21.118c-11.913 1.47-23.825 2.94-35.815 4.332-1.006.155-2.089.232-3.095.387-.386-1.857-.851-3.79-1.237-5.647-1.006-4.642-2.012-9.206-3.017-13.847h43.164v14.775z" fill="#FF9700"/><path d="M160.899 19.725c0 .078 0 .155-.078.232-.618-.928-1.547-1.624-2.707-1.856-2.166-.387-4.254.928-4.719 3.017-.541-.851-.773-1.857-.541-2.94a4.023 4.023 0 014.796-3.249c2.243.464 3.713 2.553 3.249 4.796z" fill="#FF9700"/></svg>