<svg width="10" height="12" fill="none" xmlns="http://www.w3.org/2000/svg"><path d="M5 .167A4.68 4.68 0 00.333 4.833c0 3.15 4.084 6.709 4.259 6.884.116.058.291.116.408.116.117 0 .292-.058.408-.116.175-.175 4.259-3.734 4.259-6.884A4.68 4.68 0 005 .167zm0 10.325C3.775 9.325 1.5 6.817 1.5 4.833a3.51 3.51 0 013.5-3.5 3.51 3.51 0 013.5 3.5c0 1.925-2.275 4.492-3.5 5.659zM5 2.5a2.34 2.34 0 00-2.333 2.333A2.34 2.34 0 005 7.167a2.34 2.34 0 002.333-2.334A2.34 2.34 0 005 2.5zM5 6a1.17 1.17 0 01-1.167-1.167A1.17 1.17 0 015 3.667a1.17 1.17 0 011.167 1.166A1.17 1.17 0 015 6z" fill="#242424"/></svg>