<svg width="17" height="16" fill="none" xmlns="http://www.w3.org/2000/svg"><path d="M2.204 3.333C2.204 2.597 2.801 2 3.537 2h2.667c.737 0 1.333.597 1.333 1.333V6c0 .736-.596 1.333-1.333 1.333H3.537A1.333 1.333 0 012.204 6V3.333zm4 0H3.537V6h2.667V3.333zm2.667 0A1.333 1.333 0 0110.204 2h2.667c.736 0 1.333.597 1.333 1.333V6c0 .736-.597 1.333-1.333 1.333h-2.667A1.333 1.333 0 018.871 6V3.333zm4 0h-2.667V6h2.667V3.333zM2.204 10c0-.736.597-1.333 1.333-1.333h2.667c.737 0 1.333.597 1.333 1.333v2.667c0 .736-.596 1.333-1.333 1.333H3.537a1.333 1.333 0 01-1.333-1.333V10zm4 0H3.537v2.667h2.667V10zm2.667 0c0-.736.597-1.333 1.333-1.333h2.667c.736 0 1.333.597 1.333 1.333v2.667c0 .736-.597 1.333-1.333 1.333h-2.667a1.333 1.333 0 01-1.333-1.333V10zm4 0h-2.667v2.667h2.667V10z" fill="#fff"/></svg>