<svg width="17" height="16" viewBox="0 0 17 16" fill="none" xmlns="http://www.w3.org/2000/svg">
<path d="M2.20413 3.33333C2.20413 2.59695 2.80109 2 3.53747 2H6.20413C6.94051 2 7.53747 2.59695 7.53747 3.33333V6C7.53747 6.73638 6.94051 7.33333 6.20413 7.33333H3.53747C2.80109 7.33333 2.20413 6.73638 2.20413 6V3.33333ZM6.20413 3.33333H3.53747V6H6.20413V3.33333ZM8.8708 3.33333C8.8708 2.59695 9.46775 2 10.2041 2H12.8708C13.6072 2 14.2041 2.59695 14.2041 3.33333V6C14.2041 6.73638 13.6072 7.33333 12.8708 7.33333H10.2041C9.46775 7.33333 8.8708 6.73638 8.8708 6V3.33333ZM12.8708 3.33333H10.2041V6H12.8708V3.33333ZM2.20413 10C2.20413 9.26362 2.80109 8.66667 3.53747 8.66667H6.20413C6.94051 8.66667 7.53747 9.26362 7.53747 10V12.6667C7.53747 13.403 6.94051 14 6.20413 14H3.53747C2.80109 14 2.20413 13.403 2.20413 12.6667V10ZM6.20413 10H3.53747V12.6667H6.20413V10ZM8.8708 10C8.8708 9.26362 9.46775 8.66667 10.2041 8.66667H12.8708C13.6072 8.66667 14.2041 9.26362 14.2041 10V12.6667C14.2041 13.403 13.6072 14 12.8708 14H10.2041C9.46775 14 8.8708 13.403 8.8708 12.6667V10ZM12.8708 10H10.2041V12.6667H12.8708V10Z" fill="white"/>
</svg>
