<svg width="10" height="10" viewBox="0 0 10 10" fill="none" xmlns="http://www.w3.org/2000/svg">
<path d="M0.5 1.50012C0.5 0.947837 0.947715 0.500122 1.5 0.500122H8.5C9.05229 0.500122 9.5 0.947837 9.5 1.50012V8.50012C9.5 9.05241 9.05229 9.50012 8.5 9.50012H1.5C0.947715 9.50012 0.5 9.05241 0.5 8.50012V1.50012ZM1.5 6.00012V8.50012H8.5V6.00012H7.36038L6.97434 7.15824C6.90628 7.36241 6.71522 7.50012 6.5 7.50012H3.5C3.28478 7.50012 3.09372 7.36241 3.02566 7.15824L2.63962 6.00012H1.5ZM8.5 5.00012V1.50012H1.5V5.00012H2.63962C3.07005 5.00012 3.45219 5.27555 3.5883 5.68389L3.86038 6.50012H6.13962L6.4117 5.68389C6.54781 5.27555 6.92995 5.00012 7.36038 5.00012H8.5Z" fill="#3D5165"/>
</svg>
