<svg width="97" height="30" fill="none" xmlns="http://www.w3.org/2000/svg"><path d="M33.544 6.034a2.28 2.28 0 00-2.616 1.772c-.21 1.224.549 2.363 1.772 2.616a2.28 2.28 0 002.616-1.772 2.194 2.194 0 00-1.772-2.616zm-20.042.591H0v2.91h4.979V22.11h3.544V9.536h4.98V6.625z" fill="#0047FF"/><path d="M23.291 17.13c.042-.59.084-.885.084-.927 0-1.224-.253-2.321-.801-3.25-.549-.928-1.266-1.645-2.236-2.151a5.924 5.924 0 00-1.435-.549 7.765 7.765 0 00-1.73-.21c-1.181 0-2.278.252-3.249.8-.97.507-1.73 1.267-2.278 2.195-.549.928-.844 1.983-.844 3.165 0 1.181.295 2.236.844 3.164.548.928 1.35 1.646 2.405 2.194 1.012.506 2.236.802 3.544.802 1.477 0 2.743-.296 3.713-.928l-.169-.76-.506-2.194c-.422.38-.844.675-1.35.886a4.773 4.773 0 01-1.646.296c-.886 0-1.645-.212-2.236-.633-.59-.422-.97-1.013-1.14-1.73h9.03v-.17zm-9.03-2.024c.127-.76.423-1.35.971-1.815a3.127 3.127 0 011.983-.675c.76 0 1.435.211 1.941.675.253.211.422.422.59.675.212.338.338.675.38 1.097h-5.864v.042zM29.114 0h-3.46v22.11h3.46V0zm2.278 23.924V30h3.46V12.025h-3.46v11.9zM49.62 17.13c.042-.59.085-.885.085-.927 0-1.224-.253-2.321-.802-3.25-.549-.928-1.266-1.645-2.236-2.151a5.922 5.922 0 00-1.435-.549 7.765 7.765 0 00-1.73-.21c-1.181 0-2.278.252-3.249.8-.97.507-1.73 1.267-2.278 2.195-.549.928-.844 1.983-.844 3.165 0 1.181.295 2.236.844 3.164.548.928 1.35 1.646 2.405 2.194 1.012.506 2.236.802 3.544.802 1.477 0 2.743-.296 3.713-.928l-.675-2.996c-.422.38-.844.675-1.35.886a4.773 4.773 0 01-1.646.295c-.886 0-1.645-.21-2.236-.633-.59-.422-.97-1.012-1.14-1.73h9.03v-.126zm-9.03-2.024c.127-.76.423-1.35.971-1.815a3.127 3.127 0 011.983-.675c.76 0 1.435.211 1.941.675.253.211.422.422.591.717.21.338.337.676.38 1.098H40.59zm18.65-1.899c-.337-.042-.548-.042-.632-.042-.97 0-1.773.295-2.321.844-.549.548-.844 1.392-.844 2.489v5.612h-3.46v-11.9h3.291v1.561c.422-.59.97-1.013 1.688-1.308.464-.21 1.013-.337 1.603-.38.211 1.055.465 2.068.675 3.123z" fill="#0047FF"/><path d="M77.637 9.156a2.28 2.28 0 00-2.616 1.772c-.21 1.224.549 2.363 1.772 2.616a2.28 2.28 0 002.616-1.772c.253-1.223-.548-2.363-1.772-2.616zM70.549 25.57a2.28 2.28 0 00-2.617 1.772c-.21 1.223.55 2.363 1.773 2.616a2.28 2.28 0 002.616-1.772c.253-1.224-.549-2.363-1.772-2.616zm20.421 0a2.28 2.28 0 00-2.616 1.772c-.21 1.223.549 2.363 1.773 2.616a2.28 2.28 0 002.616-1.772c.253-1.224-.549-2.363-1.772-2.616z" fill="#FF9700"/><path d="M94.515 2.616H68.48c-.084-.464-.211-.886-.295-1.35C68.016.549 67.257 0 66.54 0h-5.907c.253 1.097.506 2.278.76 3.418h3.755l3.797 17.341c-.295.718-.633 1.435-.928 2.152-.506 1.14.042 2.574 1.477 2.574h21.772c2.194 0 2.194-3.418 0-3.418H72.067c.212-.675.296-1.35.212-2.067 6.37-.76 12.784-1.561 19.156-2.32l3.038-.38c.928-.127 1.73-.675 1.73-1.73V4.262c.042-.844-.76-1.646-1.688-1.646zm-1.73 11.519c-6.498.802-12.996 1.603-19.536 2.363-.549.084-1.14.127-1.688.21-.21-1.012-.464-2.067-.675-3.08-.548-2.53-1.097-5.02-1.645-7.552h23.544v8.059z" fill="#FF9700"/><path d="M87.764 10.76c0 .042 0 .084-.042.126a2.315 2.315 0 00-1.477-1.013c-1.182-.21-2.321.507-2.574 1.646a2.104 2.104 0 01-.296-1.603 2.194 2.194 0 012.617-1.773c1.223.254 2.025 1.393 1.772 2.616z" fill="#FF9700"/></svg>