<svg width="31" height="24" fill="none" xmlns="http://www.w3.org/2000/svg"><path fill-rule="evenodd" clip-rule="evenodd" d="M9.277 20.514v2.434h-.533v-.296c-.168.22-.425.357-.773.357-.687 0-1.226-.535-1.226-1.278s.539-1.278 1.226-1.278c.348 0 .605.138.773.357v-.296h.533zm-1.24.438c-.461 0-.743.351-.743.779 0 .428.282.779.743.779.44 0 .738-.336.738-.779s-.297-.78-.738-.78zm19.239.779c0-.428.282-.78.743-.78.441 0 .738.337.738.78s-.297.779-.738.779c-.461 0-.743-.351-.743-.779zm1.984-2.194v3.411h-.534v-.296c-.168.22-.425.357-.773.357-.687 0-1.226-.535-1.226-1.278s.539-1.278 1.226-1.278c.348 0 .605.138.774.357v-1.273h.533zm-13.372 1.39c.344 0 .564.214.62.59h-1.27c.056-.351.271-.59.65-.59zm-1.21.804c0-.759.503-1.278 1.221-1.278.686 0 1.158.52 1.163 1.278 0 .071-.005.137-.01.203h-1.82c.078.438.39.596.733.596.246 0 .508-.092.713-.254l.261.392c-.297.25-.635.34-1.004.34-.733 0-1.256-.503-1.256-1.277zm7.652 0c0-.428.283-.78.744-.78.44 0 .737.337.737.78s-.297.779-.737.779c-.461 0-.744-.351-.744-.779zm1.984-1.217v2.434h-.533v-.296c-.17.22-.425.357-.774.357-.687 0-1.225-.535-1.225-1.278s.538-1.278 1.225-1.278c.349 0 .604.138.774.357v-.296h.533zm-4.992 1.217c0 .738.518 1.278 1.307 1.278.37 0 .615-.082.881-.29l-.255-.428c-.2.143-.41.219-.642.219-.425-.005-.738-.31-.738-.78 0-.468.313-.773.738-.778.232 0 .442.076.642.219l.255-.428c-.266-.208-.512-.29-.88-.29-.79 0-1.308.54-1.308 1.278zm6.222-.921a.724.724 0 01.645-.357c.108 0 .262.02.38.067l-.164.498a.87.87 0 00-.333-.06c-.349 0-.523.223-.523.626v1.364h-.533v-2.434h.528v.296zm-13.633-.102c-.256-.168-.61-.255-.999-.255-.62 0-1.02.296-1.02.78 0 .396.298.64.846.717l.251.036c.292.04.43.117.43.254 0 .188-.194.296-.558.296a1.31 1.31 0 01-.815-.255l-.251.412c.292.214.661.316 1.06.316.708 0 1.118-.331 1.118-.794 0-.428-.323-.652-.856-.728l-.25-.036c-.231-.03-.416-.076-.416-.24 0-.178.174-.284.466-.284.313 0 .616.117.764.208l.23-.427zm6.228.102a.722.722 0 01.645-.357c.108 0 .262.02.38.067l-.165.498a.869.869 0 00-.333-.06c-.348 0-.523.223-.523.626v1.364h-.532v-2.434h.528v.296zm-3.9-.296h-.872v-.738h-.538v.738h-.497v.484h.497v1.11c0 .565.22.9.85.9.231 0 .498-.07.667-.187l-.154-.454a.991.991 0 01-.472.138c-.266 0-.353-.163-.353-.408v-1.1h.871v-.483zm-7.965.907v1.527h-.538v-1.355c0-.412-.174-.641-.538-.641-.354 0-.6.224-.6.647v1.349H4.06v-1.355c0-.412-.179-.641-.533-.641-.364 0-.6.224-.6.647v1.349H2.39v-2.434h.534v.3c.2-.285.455-.36.717-.36.374 0 .64.162.81.432.225-.341.548-.438.86-.433.595.005.964.392.964.968z" fill="#231F20"/><path d="M19.807 16.38h-8.072V1.967h8.072v14.411z" fill="#FF5F00"/><path d="M12.247 9.174a9.128 9.128 0 013.524-7.206 9.225 9.225 0 00-5.702-1.96C4.974.009.844 4.113.844 9.175s4.13 9.165 9.225 9.165a9.224 9.224 0 005.702-1.96 9.128 9.128 0 01-3.524-7.205z" fill="#EB001B"/><path d="M30.698 9.174c0 5.062-4.13 9.165-9.225 9.165a9.227 9.227 0 01-5.702-1.96 9.127 9.127 0 000-14.41 9.228 9.228 0 015.702-1.96c5.095 0 9.225 4.103 9.225 9.165z" fill="#F79E1B"/></svg>