<svg width="39" height="12" fill="none" xmlns="http://www.w3.org/2000/svg"><path d="M34.573.478H27.17c.43 2.442 2.803 4.742 5.39 4.742h5.894c.072-.215.072-.575.072-.79 0-2.157-1.797-3.953-3.953-3.953z" fill="url(#paint0_linear_7_1478)"/><path d="M27.817 5.652v5.965h3.593V8.456h3.163c1.725 0 3.234-1.222 3.737-2.803H27.817zM15.167.478v11.068h3.162s.791 0 1.222-.79c2.157-4.241 2.804-5.535 2.804-5.535h.43v6.325h3.595V.478h-3.163s-.79.071-1.222.79c-1.797 3.666-2.803 5.535-2.803 5.535h-.431V.478h-3.594zM.073 11.618V.549h3.594s1.006 0 1.581 1.581C6.686 6.3 6.83 6.874 6.83 6.874s.287-1.006 1.58-4.744C8.987.55 9.993.55 9.993.55h3.594v11.068H9.992V5.652h-.431l-2.013 5.966H5.967L3.955 5.652h-.432v5.966H.073z" fill="#4FAD50"/><defs><linearGradient id="paint0_linear_7_1478" x1="27.157" y1="2.883" x2="38.501" y2="2.883" gradientUnits="userSpaceOnUse"><stop stop-color="#27B1E6"/><stop offset="1" stop-color="#148ACA"/></linearGradient></defs></svg>