<svg width="11" height="10" fill="none" xmlns="http://www.w3.org/2000/svg"><path d="M5.663 0c.198 0 .38.112.469.29l1.352 2.7 2.974.432a.524.524 0 01.29.893L8.585 6.42l.487 2.97a.523.523 0 01-.763.548l-2.646-1.4-2.646 1.4a.525.525 0 01-.763-.546l.487-2.97L.576 4.314a.523.523 0 01.29-.893l2.975-.432L5.194.29A.525.525 0 015.663 0zm0 1.694L4.657 3.703a.524.524 0 01-.394.284l-2.194.318 1.6 1.557c.122.12.179.29.151.46l-.36 2.197 1.957-1.036a.525.525 0 01.491 0l1.957 1.036-.36-2.198a.523.523 0 01.152-.459l1.599-1.557-2.194-.318a.524.524 0 01-.393-.284L5.663 1.694z" fill="#0047FF"/></svg>