<svg width="12" height="12" fill="none" xmlns="http://www.w3.org/2000/svg"><path d="M1.271 1.181h2.652l.854 2.137-1.373.915a.59.59 0 00-.262.492c.001.055 0 0 0 0v.012a1.134 1.134 0 00.003.08c.003.048.01.114.02.194.024.16.068.38.154.638.174.52.514 1.193 1.177 1.855.662.663 1.335 1.003 1.855 1.177.258.086.478.13.638.153a2.606 2.606 0 00.274.024h.011s.067-.003.001 0a.59.59 0 00.529-.326l.395-.791 2.62.437v2.55c-1.247.181-4.614.359-7.26-2.287S1.091 2.428 1.271 1.18zm3.095 3.83l1.067-.71c.464-.31.649-.903.441-1.422L5.02.742A1.181 1.181 0 003.923 0H1.24A1.13 1.13 0 00.11.955c-.2 1.324-.472 5.235 2.614 8.321 3.086 3.086 6.997 2.814 8.321 2.613A1.13 1.13 0 0012 10.76V8.179a1.18 1.18 0 00-.987-1.165l-2.62-.437a1.181 1.181 0 00-1.25.637l-.205.41a2.75 2.75 0 01-.214-.063c-.366-.122-.875-.372-1.393-.89-.519-.52-.769-1.028-.891-1.394a2.707 2.707 0 01-.074-.264z" fill="#242424"/></svg>