<svg width="34" height="12" fill="none" xmlns="http://www.w3.org/2000/svg"><path fill-rule="evenodd" clip-rule="evenodd" d="M8.365 10.923H5.469L3.298 2.39c-.103-.393-.322-.74-.644-.904A9.236 9.236 0 000 .583V.255h4.665c.643 0 1.126.493 1.207 1.066l1.126 6.156L9.892.255h2.816L8.365 10.923zm5.952 0h-2.735L13.834.255h2.735l-2.252 10.668zm5.79-7.713c.08-.574.563-.903 1.127-.903a4.966 4.966 0 012.654.492L24.37.502A6.745 6.745 0 0021.878.01c-2.654 0-4.585 1.478-4.585 3.528 0 1.56 1.368 2.38 2.333 2.873 1.045.492 1.448.821 1.367 1.313 0 .738-.805 1.067-1.608 1.067-.966 0-1.931-.246-2.815-.657l-.483 2.298c.966.41 2.01.575 2.976.575 2.976.08 4.826-1.396 4.826-3.611 0-2.79-3.781-2.954-3.781-4.185zm13.351 7.713L31.287.255h-2.332c-.483 0-.966.328-1.127.82l-4.02 9.848h2.814l.562-1.559h3.46l.321 1.56h2.493zm-4.101-7.795l.803 4.02h-2.252l1.449-4.02z" fill="#172B85"/></svg>