<svg width="12" height="12" viewBox="0 0 12 12" fill="none" xmlns="http://www.w3.org/2000/svg">
<path d="M1.41631 1.33333L2.5054 8.41248C2.51333 8.47091 2.52991 8.5266 2.55381 8.5782C2.62575 8.73353 2.76401 8.85188 2.93226 8.8969C2.98366 8.91071 3.03752 8.91761 3.09262 8.91667H9.50008C9.75769 8.91667 9.98479 8.7477 10.0588 8.50095L11.8088 2.66762C11.8618 2.491 11.8282 2.29973 11.7181 2.15179C11.608 2.00385 11.4345 1.91667 11.2501 1.91667H2.68644L2.49459 0.669613C2.4874 0.617473 2.47332 0.567533 2.4533 0.52074C2.41697 0.435529 2.36132 0.361718 2.29259 0.303863C2.22881 0.250085 2.15335 0.209732 2.07056 0.187159C2.01844 0.172888 1.96377 0.16574 1.90782 0.166668H0.750081C0.427915 0.166668 0.166748 0.427835 0.166748 0.750001C0.166748 1.07217 0.427915 1.33333 0.750081 1.33333H1.41631ZM3.58388 7.75L2.86593 3.08333H10.4661L9.06606 7.75H3.58388Z" fill="#242424"/>
<path d="M4.83341 10.6667C4.83341 11.311 4.31108 11.8333 3.66675 11.8333C3.02242 11.8333 2.50008 11.311 2.50008 10.6667C2.50008 10.0223 3.02242 9.5 3.66675 9.5C4.31108 9.5 4.83341 10.0223 4.83341 10.6667Z" fill="#242424"/>
<path d="M10.0834 10.6667C10.0834 11.311 9.56108 11.8333 8.91675 11.8333C8.27242 11.8333 7.75008 11.311 7.75008 10.6667C7.75008 10.0223 8.27242 9.5 8.91675 9.5C9.56108 9.5 10.0834 10.0223 10.0834 10.6667Z" fill="#242424"/>
</svg>
