<svg width="10" height="12" viewBox="0 0 10 12" fill="none" xmlns="http://www.w3.org/2000/svg">
<path d="M0.323242 1.167C0.323242 0.522484 0.846628 0 1.49226 0H8.50635C9.15198 0 9.67537 0.522483 9.67537 1.167V11.0865C9.67537 11.3051 9.553 11.5053 9.35832 11.6053C9.16364 11.7053 8.92929 11.6884 8.75112 11.5613L4.9993 8.88606L1.24749 11.5613C1.06932 11.6884 0.834973 11.7053 0.64029 11.6053C0.445607 11.5053 0.323242 11.3051 0.323242 11.0865V1.167ZM8.50635 1.167L4.65957 7.69419C4.8628 7.54927 5.13581 7.54927 5.33904 7.69419L2 8L8.50635 1.167Z" fill="#FF9700"/>
</svg>
