<svg width="10" height="12" viewBox="0 0 10 12" fill="none" xmlns="http://www.w3.org/2000/svg">
<path d="M0 1.167C0 0.522484 0.522483 0 1.167 0H8.169C8.81351 0 9.336 0.522483 9.336 1.167V11.0865C9.336 11.3051 9.21384 11.5053 9.0195 11.6053C8.82515 11.7053 8.59121 11.6884 8.41335 11.5613L4.668 8.88606L0.922652 11.5613C0.744793 11.6884 0.510848 11.7053 0.316501 11.6053C0.122154 11.5053 0 11.3051 0 11.0865V1.167ZM8.169 1.167L1.167 1.167V9.95265L4.32885 7.69419C4.53173 7.54927 4.80427 7.54927 5.00715 7.69419L8.169 9.95265V1.167Z" fill="#242424"/>
</svg>
