<svg width="13" height="14" viewBox="0 0 13 14" fill="none" xmlns="http://www.w3.org/2000/svg">
<path d="M5.2 1.38325C3.04609 1.38325 1.3 3.12934 1.3 5.28325C1.3 7.43716 3.04609 9.18325 5.2 9.18325C7.35391 9.18325 9.1 7.43716 9.1 5.28325C9.1 3.12934 7.35391 1.38325 5.2 1.38325ZM0 5.28325C0 2.41137 2.32812 0.083252 5.2 0.083252C8.07188 0.083252 10.4 2.41137 10.4 5.28325C10.4 6.48491 9.9924 7.59138 9.30791 8.47192L12.8096 11.9736C13.0635 12.2275 13.0635 12.639 12.8096 12.8929C12.5558 13.1467 12.1442 13.1467 11.8904 12.8929L8.38867 9.39116C7.50812 10.0757 6.40166 10.4833 5.2 10.4833C2.32812 10.4833 0 8.15513 0 5.28325Z" fill="#0047FF"/>
</svg>
