<svg width="11" height="12" viewBox="0 0 11 12" fill="none" xmlns="http://www.w3.org/2000/svg">
<path d="M5.2515 1.167C3.96247 1.167 2.9175 2.21197 2.9175 3.501C2.9175 4.79003 3.96247 5.835 5.2515 5.835C6.54053 5.835 7.5855 4.79003 7.5855 3.501C7.5855 2.21197 6.54053 1.167 5.2515 1.167ZM1.7505 3.501C1.7505 1.56745 3.31795 0 5.2515 0C7.18505 0 8.7525 1.56745 8.7525 3.501C8.7525 5.43455 7.18505 7.002 5.2515 7.002C3.31795 7.002 1.7505 5.43455 1.7505 3.501ZM2.9175 9.336C1.95073 9.336 1.167 10.1197 1.167 11.0865C1.167 11.4088 0.905758 11.67 0.5835 11.67C0.261242 11.67 0 11.4088 0 11.0865C0 9.47521 1.30621 8.169 2.9175 8.169H7.5855C9.19679 8.169 10.503 9.47521 10.503 11.0865C10.503 11.4088 10.2418 11.67 9.9195 11.67C9.59724 11.67 9.336 11.4088 9.336 11.0865C9.336 10.1197 8.55227 9.336 7.5855 9.336H2.9175Z" fill="#242424"/>
</svg>
